<svg xmlns="http://www.w3.org/2000/svg" xml:space="preserve" style="enable-background:new 0 0 348 348" viewBox="0 0 348 348"><path d="M339.11 83.031 270 121.773V87c0-9.374-7.626-17-17-17H17C7.626 70 0 77.626 0 87v174c0 9.374 7.626 17 17 17h236c9.374 0 17-7.626 17-17v-33.948l69.11 38.753c4.797 2.69 8.89.392 8.89-5.108V88.14c0-5.5-4.093-7.799-8.89-5.109zM186.723 185.882l-75.4 51.995C106.796 241 103 239.056 103 233.556V126.851c0-5.5 3.796-7.445 8.323-4.322l75.423 51.996c4.527 3.123 4.504 8.234-.023 11.357z"/></svg>