<svg xmlns="http://www.w3.org/2000/svg" xml:space="preserve" style="enable-background:new 0 0 488 488" viewBox="0 0 488 488"><path d="M351.1 306.6 254 238.7V122c0-5.5-4.5-10-10-10s-10 4.5-10 10v122c0 3.3 1.6 6.3 4.3 8.2l101.4 70.9c1.7 1.2 3.7 1.8 5.7 1.8 3.1 0 6.2-1.5 8.2-4.4 3.1-4.5 2-10.7-2.5-13.9z"/><path d="M416.4 71.6C370.2 25.4 309 0 244 0S117.8 25.4 71.6 71.6C25.4 117.8 0 179 0 244s25.4 126.2 71.6 172.4C117.8 462.6 179 488 244 488s126.2-25.4 172.4-71.6S488 309 488 244s-25.4-126.2-71.6-172.4zM254 467.8V427c0-5.5-4.5-10-10-10s-10 4.5-10 10v40.8C118.4 462.7 25.3 369.6 20.2 254H61c5.5 0 10-4.5 10-10s-4.5-10-10-10H20.2C25.3 118.4 118.4 25.3 234 20.2V61c0 5.5 4.5 10 10 10s10-4.5 10-10V20.2c115.6 5.1 208.7 98.2 213.8 213.8H427c-5.5 0-10 4.5-10 10s4.5 10 10 10h40.8c-5.1 115.6-98.2 208.7-213.8 213.8z"/></svg>