<svg xmlns="http://www.w3.org/2000/svg" xml:space="preserve" style="enable-background:new 0 0 363 363" viewBox="0 0 363 363"><path d="M343 25.5H20c-11.028 0-20 8.972-20 20v272c0 11.028 8.972 20 20 20h323c11.028 0 20-8.972 20-20v-272c0-11.028-8.972-20-20-20zm-201 31c0-6.05 4.95-11 11-11h56c6.05 0 11 4.95 11 11v8c0 6.05-4.95 11-11 11h-56c-6.05 0-11-4.95-11-11v-8zm-39 249c0 6.05-4.95 11-11 11H39c-6.05 0-11-4.95-11-11v-8c0-6.05 4.95-11 11-11h53c6.05 0 11 4.95 11 11v8zm0-241c0 6.05-4.95 11-11 11H39c-6.05 0-11-4.95-11-11v-8c0-6.05 4.95-11 11-11h53c6.05 0 11 4.95 11 11v8zm117 241c0 6.05-4.95 11-11 11h-56c-6.05 0-11-4.95-11-11v-8c0-6.05 4.95-11 11-11h56c6.05 0 11 4.95 11 11v8zm-34.362-52.036c-39.883 0-72.214-32.331-72.214-72.214s32.331-72.214 72.214-72.214c39.883 0 72.214 32.331 72.214 72.214s-32.331 72.214-72.214 72.214zM336 305.5c0 6.05-4.95 11-11 11h-57c-6.05 0-11-4.95-11-11v-8c0-6.05 4.95-11 11-11h57c6.05 0 11 4.95 11 11v8zm0-241c0 6.05-4.95 11-11 11h-57c-6.05 0-11-4.95-11-11v-8c0-6.05 4.95-11 11-11h57c6.05 0 11 4.95 11 11v8z"/><path d="m228.331 175.572-60.854-41.893C162.95 130.555 159 132.5 159 138v86.5c0 5.5 3.95 7.445 8.477 4.322l60.793-41.893c4.527-3.124 4.589-8.234.061-11.357z"/></svg>