<svg xmlns="http://www.w3.org/2000/svg" xml:space="preserve" viewBox="0 0 64 64"><circle cx="12.783" cy="27.078" r="2.232"/><path d="M63.953 42.519 57.3 3.598a3.193 3.193 0 0 0-1.31-2.081 3.173 3.173 0 0 0-2.398-.544L18.425 6.986a3.22 3.22 0 0 0-2.63 3.681l.77 4.74L2.67 17.783A3.217 3.217 0 0 0 .047 21.49L6.7 60.405a3.217 3.217 0 0 0 3.708 2.624l35.15-6.01a3.217 3.217 0 0 0 2.625-3.707l-.797-4.657 13.953-2.431a3.216 3.216 0 0 0 2.614-3.705zm-18.732 12.53-35.15 6.009a1.215 1.215 0 0 1-1.4-.991L2.018 21.154a1.215 1.215 0 0 1 .99-1.4l35.151-6.01a1.21 1.21 0 0 1 1.4.99v.002l6.653 38.913a1.216 1.216 0 0 1-.991 1.4zM23.09 13.34a.29.29 0 0 1 .238-.324l27.61-4.72a.292.292 0 0 1 .335.238l1.34 7.833-6.697-3.243a1.003 1.003 0 0 0-1.238.304l-2.694 3.626-.454-2.655a3.187 3.187 0 0 0-1.31-2.081 3.179 3.179 0 0 0-2.399-.544L23.19 14.275c-.001-.038.012-.073.007-.112l-.107-.823zm19.345 6.351c.075-.056.157-.1.215-.179l3.14-4.227 6.644 3.218a.978.978 0 0 0 .557.075l2.035 11.904a.288.288 0 0 1-.231.333l-10.117 1.998-2.243-13.122zm18.56 24.562-13.946 2.43-2.034-11.898 10.167-2.007a2.275 2.275 0 0 0 1.815-2.633L53.244 8.198a2.275 2.275 0 0 0-.934-1.485 2.28 2.28 0 0 0-1.71-.388l-27.609 4.72a2.285 2.285 0 0 0-1.885 2.553l.109.827c.008.065.04.118.06.177l-2.738.468-.768-4.724a1.215 1.215 0 0 1 .993-1.39L53.93 2.944a1.208 1.208 0 0 1 1.398.992l6.653 38.92a1.213 1.213 0 0 1-.987 1.397z"/><path d="M34.83 17.126 7.27 21.837a2.293 2.293 0 0 0-1.87 2.645l3.746 21.915a2.294 2.294 0 0 0 2.644 1.87l27.56-4.71a2.292 2.292 0 0 0 1.872-2.643l-3.746-21.917a2.295 2.295 0 0 0-2.646-1.87zM7.607 23.808l27.56-4.711c.017-.002.033-.004.05-.004.14 0 .263.1.288.242l1.339 7.833-6.698-3.243a.998.998 0 0 0-1.252.322l-5.765 8.144-5.54-2.465a1 1 0 0 0-1.093.188L9.519 36.71 7.37 24.144a.292.292 0 0 1 .237-.336zm31.406 17.778-27.56 4.711a.29.29 0 0 1-.336-.238l-1.225-7.165a.974.974 0 0 0 .478-.235l7.016-6.634 5.68 2.527c.433.19.947.053 1.222-.336l5.749-8.12 6.628 3.208a.98.98 0 0 0 .556.074l2.03 11.873a.292.292 0 0 1-.238.335z"/></svg>