<svg xmlns="http://www.w3.org/2000/svg" xml:space="preserve" style="enable-background:new 0 0 66.831 66.831" viewBox="0 0 66.831 66.831"><path d="M51.735 20h-2.934c1.419-3.934 2.799-9.714.942-14.247-1.095-2.673-3.177-4.574-6.021-5.496A5.228 5.228 0 0 0 42.101 0c-3.701 0-7.05 3.613-11.944 12.888-2.199 4.171-5.364 7.683-7.593 9.577a15.45 15.45 0 0 0-2.315 2.431 9.399 9.399 0 0 0-7.806-4.167c-5.185 0-9.404 4.219-9.404 9.404v27.294c0 5.186 4.219 9.404 9.404 9.404 3.406 0 6.386-1.827 8.036-4.546 2.212 2.728 5.586 4.477 9.364 4.477h23.023c9.507 0 10.926-6.136 10.926-9.793v-24.91C63.793 25.41 58.384 20 51.735 20zM15.847 57.427a3.408 3.408 0 0 1-3.403 3.404 3.408 3.408 0 0 1-3.404-3.404V30.133a3.408 3.408 0 0 1 3.404-3.404 3.408 3.408 0 0 1 3.403 3.404v27.294zm41.946-.458c0 2.221-.354 3.793-4.926 3.793H29.844a6.065 6.065 0 0 1-6.058-6.057V32.059l.008-.095-.021-.176c-.006-.096-.106-2.386 2.676-4.75 2.656-2.258 6.419-6.425 9.015-11.351 4.132-7.83 6.104-9.353 6.639-9.641 1.039.388 1.688 1.007 2.087 1.981 1.293 3.156-.331 9.224-2.603 13.587l-2.283 4.385h12.43a6.066 6.066 0 0 1 6.059 6.059v24.911z"/></svg>