<svg xmlns="http://www.w3.org/2000/svg" xml:space="preserve" width="46.237" height="46.237" style="enable-background:new 0 0 46.237 46.237"><path d="M38.296 27.178v-9.393c0-6.357-3.941-11.767-9.492-14.034h.054C27.886 1.554 25.683 0 23.119 0c-2.567 0-4.769 1.554-5.738 3.751h.051c-5.55 2.267-9.491 7.677-9.491 14.034v9.395c-3.158.028-5.7 2.609-5.7 5.791v1.248c0 3.198 2.582 5.795 5.781 5.795h30.193c3.198 0 5.78-2.597 5.78-5.795v-1.248c0-3.183-2.541-5.764-5.699-5.793zM17.568 46.237c2.565 0 4.768-1.554 5.737-3.751H11.828c.969 2.198 3.174 3.751 5.74 3.751z"/></svg>