<svg xmlns="http://www.w3.org/2000/svg" xml:space="preserve" style="enable-background:new 0 0 310.745 310.745" viewBox="0 0 310.745 310.745"><path d="M77.622 120.372c9.942 0 19.137-3.247 26.593-8.728 11.382 16.007 30.063 26.479 51.157 26.479 21.093 0 39.774-10.472 51.157-26.479 7.456 5.481 16.651 8.728 26.593 8.728 24.813 0 45-20.187 45-44.999 0-24.814-20.187-45.001-45-45.001-9.943 0-19.138 3.248-26.594 8.729-11.383-16.006-30.063-26.478-51.156-26.478s-39.773 10.472-51.156 26.478c-7.456-5.481-16.651-8.729-26.594-8.729-24.813 0-45 20.187-45 45.001 0 24.813 20.187 44.999 45 44.999zm155.5-60c8.271 0 15 6.73 15 15.001 0 8.271-6.729 14.999-15 14.999s-15-6.729-15-14.999c0-8.271 6.729-15.001 15-15.001zm-77.75-17.749c18.059 0 32.75 14.691 32.75 32.75s-14.691 32.75-32.75 32.75c-18.059 0-32.75-14.691-32.75-32.75s14.691-32.75 32.75-32.75zm-77.75 17.749c8.271 0 15 6.73 15 15.001 0 8.271-6.729 14.999-15 14.999s-15-6.729-15-14.999c0-8.271 6.729-15.001 15-15.001zM233.122 150.372a77.448 77.448 0 0 0-52.584 20.532 114.957 114.957 0 0 0-25.166-2.781c-8.643 0-17.063.965-25.165 2.781a77.45 77.45 0 0 0-52.585-20.532C34.821 150.372 0 185.194 0 227.995c0 8.284 6.716 15 15 15h32.6c-4.669 12.5-7.228 26.019-7.228 40.127 0 8.284 6.716 15 15 15h200c8.284 0 15-6.716 15-15 0-14.108-2.559-27.627-7.229-40.127h32.602c8.284 0 15-6.716 15-15 0-42.801-34.822-77.623-77.623-77.623zM32.42 212.995c6.298-18.934 24.181-32.623 45.202-32.623a47.557 47.557 0 0 1 18.964 3.95 115.872 115.872 0 0 0-32.29 28.673H32.42zm39.277 55.127c7.106-39.739 41.923-69.999 83.675-69.999 41.751 0 76.569 30.26 83.675 69.999H71.697zm174.752-55.127a115.886 115.886 0 0 0-32.29-28.673 47.574 47.574 0 0 1 18.964-3.95c21.021 0 38.905 13.689 45.203 32.623h-31.877z"/></svg>