<svg xmlns="http://www.w3.org/2000/svg" xml:space="preserve" width="270.343" height="270.342" style="enable-background:new 0 0 270.343 270.342"><path d="M45.775 87.412c-24.004 0-43.547-19.533-43.547-43.541C2.228 19.867 21.77.339 45.775.339c24.007 0 43.535 19.527 43.535 43.532 0 24.007-19.522 43.541-43.535 43.541zM136.307 87.073c-23.992 0-43.535-19.534-43.535-43.538C92.771 19.528 112.314 0 136.307 0c24.004 0 43.544 19.528 43.544 43.535 0 24.004-19.54 43.538-43.544 43.538zM225.324 87.073c-24.007 0-43.534-19.534-43.534-43.538C181.79 19.528 201.317 0 225.324 0c24.001 0 43.547 19.528 43.547 43.535 0 24.004-19.546 43.538-43.547 43.538zM45.006 178.462c-24.004 0-43.535-19.539-43.535-43.537 0-24.011 19.531-43.535 43.535-43.535 23.992 0 43.535 19.524 43.535 43.535 0 23.998-19.533 43.537-43.535 43.537zM135.55 178.126c-24.004 0-43.547-19.54-43.547-43.538 0-24.007 19.543-43.535 43.547-43.535s43.531 19.528 43.531 43.535c0 23.998-19.527 43.538-43.531 43.538zM225.324 178.126c-24.007 0-43.534-19.54-43.534-43.538 0-24.007 19.527-43.535 43.534-43.535 24.001 0 43.547 19.528 43.547 43.535 0 23.998-19.546 43.538-43.547 43.538zM45.775 270.342c-24.004 0-43.547-19.534-43.547-43.541s19.542-43.535 43.547-43.535c24.007 0 43.535 19.528 43.535 43.535s-19.522 43.541-43.535 43.541zM136.307 270c-23.992 0-43.535-19.527-43.535-43.535 0-24.007 19.543-43.534 43.535-43.534 24.004 0 43.544 19.527 43.544 43.534 0 24.007-19.54 43.535-43.544 43.535zM225.324 270c-24.007 0-43.534-19.527-43.534-43.535 0-24.007 19.527-43.534 43.534-43.534 24.001 0 43.547 19.527 43.547 43.534 0 24.007-19.546 43.535-43.547 43.535z"/></svg>